<svg width="21" height="19" viewBox="0 0 21 19" fill="none" xmlns="http://www.w3.org/2000/svg">
<path d="M20.9709 7.15784C20.901 6.94823 20.7149 6.79547 20.4909 6.76382L14.1978 5.87364L11.3834 0.32269C11.2832 0.125085 11.0765 0 10.8501 0C10.6237 0 10.417 0.125085 10.3168 0.32269L7.50224 5.87364L1.20927 6.76382C0.985298 6.79547 0.799149 6.94823 0.729209 7.1578C0.65923 7.3674 0.717593 7.59747 0.879714 7.75127L5.43324 12.0721L4.35845 18.1732C4.32015 18.3905 4.4119 18.6099 4.59503 18.7395C4.69864 18.8127 4.82135 18.85 4.94465 18.85C5.03933 18.85 5.13433 18.828 5.22132 18.7835L10.8501 15.9029L16.4786 18.7835C16.679 18.886 16.9218 18.8689 17.1049 18.7394C17.288 18.6099 17.3798 18.3904 17.3416 18.1732L16.2664 12.0721L20.8205 7.75123C20.9825 7.59747 21.0409 7.3674 20.9709 7.15784Z" fill="#FFCA56"/>
</svg>
